<?xml version="1.0" encoding="UTF-8"?>
<svg id="_レイヤー_2" data-name="レイヤー 2" xmlns="http://www.w3.org/2000/svg" viewBox="0 0 445.18 58.81">
  <g id="_レイヤー_1-2" data-name="レイヤー 1">
    <g>
      <path d="M35.52,22.21h11.46v36.16h-23.74v-24.19l-6.27,6.08H0L41.34,0h17.02l-20.67,20.16-2.18,2.05Z"/>
      <path d="M125.18,20.29h-8.58l-10.43,38.52h-24.38l10.5-38.52h-10.5l-4.1,13.25h-13.69L74.24.45h13.69l-3.71,12.1h40.96v7.74Z"/>
      <path d="M161.15,58.36h-25.92L158.85,0h25.85l-23.55,58.36Z"/>
      <path d="M249.98,0v58.36h-52.03v-7.87h30.08V7.87h-30.08V0h52.03Z"/>
      <path d="M317.18,33.15h-58.36v-7.94h58.36v7.94Z"/>
      <path d="M346.37,25.21v25.28h31.68v7.87h-52.03V0h20.35v17.34h31.68v7.87h-31.68Z"/>
      <path d="M445.18,33.15h-58.36v-7.94h58.36v7.94Z"/>
    </g>
  </g>
</svg>